# Draw.io XML format
<mxfile host="app.diagrams.net">
  <diagram name="Page-1" id="some-id">
    <mxGraphModel dx="1064" dy="600" grid="1" gridSize="10" guides="1" tooltips="1" connect="1" arrows="1" fold="1" page="1" pageScale="1" pageWidth="827" pageHeight="1169" math="0" shadow="0">
      <root>
        <mxCell id="0" parent="1" />
        <mxCell id="1" parent="0" />
        <mxCell id="table" value="ACF004" style="table;whiteSpace=wrap;html=1;" vertex="1" parent="1">
          <mxGeometry x="20" y="20" width="240" height="300" />
          <mxCell id="header" value="Columns" style="tableHeader;whiteSpace=wrap;html=1;" vertex="1" parent="table">
            <mxGeometry width="240" height="30" />
          </mxCell>
          <mxCell id="V1" value="V1: char(7) NOT NULL" style="tableCell;whiteSpace=wrap;html=1;" vertex="1" parent="table">
            <mxGeometry y="30" width="240" height="30" />
          </mxCell>
          <mxCell id="V2" value="V2: char(3) NOT NULL" style="tableCell;whiteSpace=wrap;html=1;" vertex="1" parent="table">
            <mxGeometry y="60" width="240" height="30" />
          </mxCell>
          <mxCell id="V3" value="V3: char(1) NOT NULL" style="tableCell;whiteSpace=wrap;html=1;" vertex="1" parent="table">
            <mxGeometry y="90" width="240" height="30" />
          </mxCell>
          <mxCell id="V4" value="V4: char(1) NOT NULL" style="tableCell;whiteSpace=wrap;html=1;" vertex="1" parent="table">
            <mxGeometry y="120" width="240" height="30" />
          </mxCell>
          <mxCell id="V5" value="V5: char(3) NOT NULL" style="tableCell;whiteSpace=wrap;html=1;" vertex="1" parent="table">
            <mxGeometry y="150" width="240" height="30" />
          </mxCell>
          <mxCell id="V6" value="V6: char(17) NULL" style="tableCell;whiteSpace=wrap;html=1;" vertex="1" parent="table">
            <mxGeometry y="180" width="240" height="30" />
          </mxCell>
          <mxCell id="V7" value="V7: char(17) NULL" style="tableCell;whiteSpace=wrap;html=1;" vertex="1" parent="table">
            <mxGeometry y="210" width="240" height="30" />
          </mxCell>
          <mxCell id="V8" value="V8: char(17) NULL" style="tableCell;whiteSpace=wrap;html=1;" vertex="1" parent="table">
            <mxGeometry y="240" width="240" height="30" />
          </mxCell>
          <mxCell id="V9" value="V9: char(17) NULL" style="tableCell;whiteSpace=wrap;html=1;" vertex="1" parent="table">
            <mxGeometry y="270" width="240" height="30" />
          </mxCell>
          <mxCell id="V10" value="V10: char(17) NULL" style="tableCell;whiteSpace=wrap;html=1;" vertex="1" parent="table">
            <mxGeometry y="300" width="240" height="30" />
          </mxCell>
          <mxCell id="V11" value="V11: nchar(50) NULL" style="tableCell;whiteSpace=wrap;html=1;" vertex="1" parent="table">
            <mxGeometry y="330" width="240" height="30" />
          </mxCell>
          <mxCell id="V12" value="V12: nchar(50) NULL" style="tableCell;whiteSpace=wrap;html=1;" vertex="1" parent="table">
            <mxGeometry y="360" width="240" height="30" />
          </mxCell>
        </mxCell>
      </root>
    </mxGraphModel>
  </diagram>
</mxfile>
